<svg width="1440" height="4489" viewBox="0 0 1440 4489" fill="none" xmlns="http://www.w3.org/2000/svg">
<g clip-path="url(#clip0_399_995)" filter="url(#filter0_dddddd_399_995)">
<path d="M568.401 1631.14L566.997 1630.99L563.162 1676.49L562.129 1686.31L559.542 1688.41L549.959 1694.03L540.893 1699.22L532.345 1704L522.762 1709.62L514.213 1714.4L513.228 1714.77L513.129 1715.71L522.616 1720.02L549.818 1731.39L565.242 1737.75L569.089 1755.19L576.363 1789.55L577.423 1792.97L578.876 1792.65L585.897 1784.4L592.35 1777.03L599.371 1768.78L607.992 1758.8L614.446 1751.44L614.963 1751.02L670.251 1756.36L671.237 1755.99L670.546 1753.55L665.667 1745.94L660.048 1736.36L655.587 1729.26L650.338 1720.67L646.296 1714.09L642.673 1708.03L644.052 1703.92L657.031 1674.99L665.133 1656.45L663.31 1655.78L645.867 1659.63L625 1664.53L611.401 1667.83L609.109 1667.12L604.304 1663.3L597.404 1656.9L581.831 1642.96L573.625 1635.47L568.401 1631.14Z" fill="#C2BDFF"/>
<path d="M466.666 1594.89L464.695 1595.63L452.083 1607.55L446.245 1613.56L440.505 1618.64L438.904 1620.36L431.931 1619.16L406.43 1614.11L401.281 1613.57L401.971 1616.01L413.654 1639.95L417.178 1646.95L416.415 1649.71L409.986 1661.33L400.676 1677.86L399.396 1681.04L400.283 1681.61L433.42 1677.05L437.682 1677.02L443.177 1683.28L447.884 1688.03L453.798 1694.8L458.505 1699.56L462.324 1703.74L463.261 1703.84L463.827 1702.95L469.562 1670.91L470.424 1667.21L475.449 1664.43L488.358 1658.69L500.799 1652.9L505.258 1651L504.889 1650.01L488.306 1641.17L474.853 1634.08L471.723 1632.33L470.317 1623.19L467.899 1601.17L467.085 1595.41L466.666 1594.89Z" fill="#C2BDFF"/>
<path d="M214.674 1605.79L212.801 1605.59L211.965 1613.55L209.973 1637L201.893 1641.83L194.848 1645.82L185.782 1651.02L182.776 1652.59L182.678 1653.53L190.341 1657.18L209.831 1665.38L211.703 1665.57L212.665 1669.93L217.424 1692.2L218.755 1697.54L221.342 1695.45L228.313 1687.67L236.417 1678.11L240.186 1673.77L271.599 1676.6L271.796 1674.73L265.758 1664.63L260.509 1656.03L256.516 1648.99L258.511 1643.52L268.46 1620.9L268.608 1619.5L264.297 1619.99L244.415 1624.53L239.069 1625.86L236.728 1625.61L229.828 1619.21L222.46 1612.76L214.674 1605.79Z" fill="#C2BDFF"/>
<path d="M744.092 1630.2L743.624 1630.15L740.23 1662.45L732.15 1667.27L723.601 1672.05L714.018 1677.67L713.822 1679.54L734.667 1688.36L741.442 1691.44L743.02 1694.44L747.73 1717.18L749.11 1722.06L750.515 1722.2L756.402 1715.72L770.442 1699.22L771.428 1698.85L802.841 1701.68L800.106 1696.18L795.226 1688.57L786.773 1674.44L788.718 1669.43L799.284 1645.47L799.333 1645L795.539 1645.07L768.857 1651.26L766.566 1650.54L759.666 1644.14L751.879 1637.17L744.092 1630.2Z" fill="#C2BDFF"/>
<path d="M76.2533 1571.84L74.2824 1572.58L68.5427 1577.65L63.7885 1582.36L58.5661 1587.01L53.4168 1586.47L38.5844 1583.49L35.3075 1583.15L35.9486 1586.06L41.7898 1598.03L44.8953 1604.51L43.6639 1607.21L36.1025 1620.62L34.3046 1624.21L34.1571 1625.62L37.4831 1625.49L57.1682 1622.83L61.8748 1627.58L66.9512 1633.32L71.6578 1638.08L73.8509 1639.73L74.3682 1639.31L77.6419 1621.67L78.183 1616.52L80.622 1615.83L90.5748 1611.2L99.0248 1607.36L99.1724 1605.95L92.4949 1601.94L79.5096 1594.89L78.3257 1588.14L76.2533 1571.84Z" fill="#C2BDFF"/>
<path d="M161.271 1532.98L157.699 1535.44L151.393 1541.41L148.289 1543.92L135.28 1541.6L132.003 1541.26L134.591 1548.16L137.697 1554.64L138.485 1556.14L137.722 1558.9L131.909 1569.17L131.811 1570.11L125.306 1568.95L124.737 1551.85L124.44 1545.67L123.405 1546.51L120.205 1558.95L118.432 1566.81L117.816 1568.16L104.512 1568.66L98.8454 1568.53L97.86 1568.9L98.1805 1570.36L117.694 1573.83L117.523 1579.96L117.575 1597.47L117.896 1598.93L118.832 1599.03L119.398 1598.14L124.051 1576.39L124.248 1574.52L144.057 1575.18L143.736 1573.73L139.153 1572.3L138.365 1570.79L144.081 1570.45L148.343 1570.42L153 1575.65L156.401 1579.32L158.545 1581.43L159.949 1581.58L160.565 1580.23L162.928 1566.75L165.514 1564.66L173.496 1560.76L178.473 1558.45L177.216 1556.9L165.586 1550.47L163.762 1549.8L162.775 1541.18L161.69 1533.5L161.271 1532.98Z" fill="#C2BDFF"/>
<path d="M258.293 1528.51L257.357 1528.41L255.956 1546.24L255.34 1547.6L245.24 1553.64L240.682 1556.47L240.535 1557.87L256.427 1564.28L257.314 1564.84L260.569 1578.91L261.629 1582.33L263.083 1582.01L271.704 1572.03L273.872 1569.42L273.97 1568.49L292.695 1570.45L292.424 1568.53L289.22 1562.99L284.34 1555.38L284.167 1552.52L289.905 1538.46L290.102 1536.58L285.79 1537.08L272.659 1540.43L270.885 1539.3L265.661 1534.96L259.599 1529.59L258.293 1528.51Z" fill="#C2BDFF"/>
<path d="M149.065 1333.9L148.079 1334.27L146.21 1352.05L142.12 1354.94L134.04 1359.76L130.985 1361.81L130.887 1362.75L146.779 1369.15L148.085 1370.23L151.981 1387.2L153.952 1386.46L158.756 1381.29L164.175 1374.76L164.273 1373.83L181.175 1375.13L183.565 1374.91L182.036 1371.43L177.576 1364.34L174.742 1359.78L175.702 1355.15L180.775 1342.91L180.922 1341.51L178.533 1341.73L164.465 1344.98L161.237 1344.17L152.982 1337.15L149.065 1333.9Z" fill="#C2BDFF"/>
<path d="M353.653 1593.9L352.716 1593.8L350.428 1611.07L348.457 1611.8L340.377 1616.63L336.854 1618.63L338.111 1620.18L351.712 1625.87L353.462 1631.73L355.755 1641.44L357.16 1641.58L361.397 1637.3L366.298 1631.19L366.914 1629.83L380.071 1630.74L384.801 1630.77L382.386 1626.73L377.925 1619.63L376.299 1617.1L377.161 1613.4L381.618 1602.51L381.815 1600.64L378.957 1600.81L366.811 1603.8L364.52 1603.08L359.296 1598.75L353.653 1593.9Z" fill="#C2BDFF"/>
<path d="M533.417 1639.76L531.865 1641.02L526.694 1654.2L523.566 1661.44L523.468 1662.38L516.816 1662.62L504.398 1663.68L504.251 1665.09L514.304 1668.51L521.646 1670.7L522.533 1671.27L526.676 1694.89L527.613 1694.99L536.528 1673.21L536.626 1672.28L542.342 1671.93L554.291 1670.82L556.262 1670.08L555.892 1669.1L539.384 1664.05L538.029 1663.43L536.426 1656.17L533.836 1640.28L533.417 1639.76Z" fill="#C2BDFF"/>
<path d="M321.808 1658.22L320.305 1659L315.724 1666.57L314.541 1668.81L302.642 1669.45L301.188 1669.77L301.927 1671.74L307.793 1678.98L308.729 1679.08L308.335 1682.83L306.759 1688.81L306.317 1693.02L308.756 1692.33L317.625 1689.01L319.916 1689.72L328.787 1695.39L329.723 1695.48L329.401 1685.04L329.696 1682.23L337.973 1675.53L339.106 1673.76L327.181 1670.14L324.815 1665.63L321.808 1658.22Z" fill="#C2BDFF"/>
<path d="M65.18 1510.58L64.2438 1510.48L59.6625 1518.04L56.9776 1521.07L45.5458 1521.76L45.349 1523.64L49.0702 1528.76L52.0028 1532.38L50.1811 1540.71L49.7383 1544.92L52.1281 1544.7L59.5435 1541.69L62.8696 1541.57L72.1591 1547.75L73.0954 1547.85L72.7732 1537.4L73.0684 1534.59L76.7388 1531.19L82.4293 1526.59L81.5914 1525.55L71.0213 1522.55L68.9266 1519.96L65.18 1510.58Z" fill="#C2BDFF"/>
<path d="M161.863 1675.95L160.459 1675.8L154.744 1685.14L154.129 1686.49L143.682 1686.81L140.824 1686.99L141.564 1688.96L148.267 1697.23L147.11 1703.74L146.347 1706.5L145.953 1710.24L150.314 1709.28L156.744 1706.64L159.972 1707.45L167.955 1712.55L169.409 1712.23L168.988 1702.72L169.332 1699.45L178.644 1691.91L178.274 1690.92L167.236 1687.87L165.56 1685.8L161.863 1675.95Z" fill="#C2BDFF"/>
<path d="M785.995 1735.87L784.542 1736.19L779.394 1744.64L778.31 1745.95L771.141 1746.61L765.893 1747.01L765.745 1748.41L767.791 1751.46L771.191 1755.13L772.818 1757.67L771.858 1762.3L770.085 1770.16L772.475 1769.94L779.891 1766.93L783.685 1766.86L792.087 1772.47L793.492 1772.62L793.614 1766.96L793.415 1759.84L802.727 1752.3L802.875 1750.89L791.837 1747.84L789.742 1745.25L785.995 1735.87Z" fill="#C2BDFF"/>
<path d="M692.12 1701.4L691.183 1701.3L684.484 1711L682.981 1711.79L671.549 1712.48L672.289 1714.45L675.172 1718.54L678.154 1721.7L678.942 1723.2L676.407 1733.82L676.21 1735.69L678.6 1735.47L687.986 1731.72L690.696 1732.95L699.148 1738.1L699.764 1736.74L699.565 1729.62L700.057 1724.94L700.673 1723.59L701.609 1723.69L705.279 1720.29L708.334 1718.24L708.95 1716.89L706.24 1715.66L696.606 1712.75L693.648 1704.87L692.12 1701.4Z" fill="#C2BDFF"/>
<path d="M380.849 1708.9L379.297 1710.16L372.795 1726.98L371.662 1728.76L359.713 1729.87L354.465 1730.26L353.85 1731.62L369.89 1736.62L371.147 1738.17L373.563 1751.2L374.747 1757.95L376.201 1757.63L379.944 1749.03L383.786 1739.5L384.352 1738.61L397.755 1737.18L402.535 1736.74L402.633 1735.8L398.986 1734.47L386.593 1730.8L385.238 1730.19L383.043 1719.54L381.267 1709.42L380.849 1708.9Z" fill="#C2BDFF"/>
<path d="M161.092 1494.16L159.687 1494.01L158.703 1503.37L156.117 1505.47L151.042 1508.72L150.845 1510.59L158.089 1513.72L159.494 1513.87L160.406 1518.69L161.737 1524.04L163.708 1523.3L168.044 1518.08L170.064 1516.87L179.007 1517.34L178.785 1514.95L175.162 1508.89L176.122 1504.26L178.166 1498.32L175.308 1498.49L169.026 1499.72L166.734 1499.01L161.092 1494.16Z" fill="#C2BDFF"/>
<path d="M117.102 1430.86L115.698 1430.71L114.197 1440.49L111.61 1442.58L106.018 1446.25L106.388 1447.24L114.1 1450.42L115.455 1451.03L116.417 1455.39L117.748 1460.74L119.202 1460.42L125.138 1453.47L135.486 1454.08L134.796 1451.65L131.173 1445.59L130.852 1444.13L134.029 1436.42L134.177 1435.02L129.865 1435.51L125.505 1436.47L123.164 1436.23L117.102 1430.86Z" fill="#C2BDFF"/>
<path d="M127.859 1378.04L126.874 1378.41L125.373 1388.19L117.243 1393.49L118.968 1395.09L126.212 1398.22L128.332 1405.07L129.441 1408.02L132.028 1405.93L135.797 1401.59L136.831 1400.75L146.243 1401.27L146.391 1399.87L144.813 1396.86L142.398 1392.82L143.309 1388.66L145.255 1383.66L145.402 1382.25L141.091 1382.75L136.73 1383.71L133.97 1382.94L127.859 1378.04Z" fill="#C2BDFF"/>
<path d="M83.8698 1314.74L82.9336 1314.64L81.3832 1324.89L75.2738 1328.98L73.771 1329.77L73.6235 1331.17L82.2227 1334.92L84.9838 1344.67L86.9547 1343.93L92.3247 1337.87L92.842 1337.45L102.722 1338.02L102.45 1336.1L98.4087 1329.52L99.3195 1325.36L101.265 1320.36L101.413 1318.95L90.8187 1320.68L83.8698 1314.74Z" fill="#C2BDFF"/>
<path d="M150.71 1583.92L149.725 1584.29L144.652 1596.53L142.583 1598.21L132.038 1599.47L131.003 1600.31L136.941 1602.35L143.397 1603.97L144.26 1609.27L146.085 1618.93L146.972 1619.49L150.1 1612.25L153.178 1605.48L164.659 1604.32L164.807 1602.91L154.754 1599.49L153.497 1597.94L151.302 1587.3L150.71 1583.92Z" fill="#C2BDFF"/>
<path d="M303.927 1553.65L302.941 1554.02L299.15 1572.08L296.711 1572.77L282.003 1573.12L281.436 1574L282.791 1574.62L298.609 1577.23L298.487 1582.89L298.465 1596.61L299.253 1598.12L300.534 1594.94L304.079 1579.22L304.646 1578.33L306.567 1578.06L319.773 1578.5L322.163 1578.28L321.325 1577.25L306.542 1573.8L304.669 1573.6L304.766 1563.68L304.346 1554.17L303.927 1553.65Z" fill="#C2BDFF"/>
<path d="M564.869 1579.19L563.415 1579.51L559.821 1595.69L559.107 1597.98L542.477 1598.6L541.442 1599.44L542.797 1600.05L558.147 1602.61L558.788 1605.52L558.815 1618.77L559.358 1622.61L560.343 1622.24L563.888 1606.53L564.233 1603.25L578.843 1603.84L581.233 1603.62L580.863 1602.63L567.952 1599.38L564.675 1599.04L565.043 1591.03L564.869 1579.19Z" fill="#C2BDFF"/>
<path d="M50.306 1273.83L49.2222 1275.14L45.4804 1292.73L32.6443 1293.27L29.269 1293.86L29.1706 1294.8L44.5204 1297.36L44.7679 1304.01L44.7457 1317.73L45.682 1317.83L47.061 1313.71L50.6552 1297.53L67.0887 1298.78L66.7682 1297.33L62.1853 1295.9L54.3256 1294.13L51.0487 1293.78L50.8979 1277.21L50.306 1273.83Z" fill="#C2BDFF"/>
<path d="M226.778 1508.63L224.388 1508.86L220.915 1510.38L218.993 1510.65L214.927 1508.81L213.055 1508.61L213.499 1513.39L212.687 1516.62L209.485 1520.07L209.805 1521.52L215.792 1523.09L217.887 1525.68L219.464 1528.69L220.401 1528.78L223.849 1522.99L230.649 1521.34L229.909 1519.37L226.508 1515.7L226.778 1508.63Z" fill="#C2BDFF"/>
<path d="M512.15 1612.45L510.598 1613.7L506.806 1622.77L506.707 1623.7L502.396 1624.2L497.616 1624.64L497 1626L506.166 1628.85L506.66 1633.16L508.213 1640.9L509.149 1641L512.277 1633.75L514.075 1630.16L516.982 1629.52L522.747 1628.7L522.895 1627.3L514.665 1624.54L512.791 1615.35L512.15 1612.45Z" fill="#C2BDFF"/>
<path d="M84.665 1352.21L83.7287 1352.11L81.3643 1356.59L78.8523 1362.48L74.9597 1363.49L69.1946 1364.31L69.0963 1365.24L72.7429 1366.57L78.262 1368.1L79.0761 1373.86L80.3582 1379.68L81.7626 1379.82L86.1709 1369.4L95.7794 1368.05L95.8777 1367.11L88.1164 1364.4L86.4407 1362.33L84.665 1352.21Z" fill="#C2BDFF"/>
<path d="M37.1464 1394.54L35.6928 1394.86L33.4268 1398.4L30.9386 1399.56L26.1098 1400.47L26.8493 1402.44L29.3629 1405.55L28.6742 1412.1L31.064 1411.88L34.9566 1410.87L38.9729 1413.18L40.8454 1413.38L40.9676 1407.71L43.1352 1405.1L45.2045 1403.43L44.884 1401.97L39.414 1399.98L37.1464 1394.54Z" fill="#C2BDFF"/>
<path d="M52.9371 1244.3L51.4835 1244.62L48.7001 1248.58L47.1974 1249.37L42.4177 1249.82L42.2702 1251.22L45.2027 1254.84L44.4648 1261.86L46.8546 1261.64L50.7472 1260.63L54.3446 1262.43L56.1187 1263.56L56.8328 1261.27L56.7582 1257.48L58.4086 1255.28L61.0443 1252.72L61.1427 1251.78L55.6728 1249.79L53.9971 1247.72L52.9371 1244.3Z" fill="#C2BDFF"/>
<path d="M348.251 1559.73L345.812 1560.42L342.856 1561.53L338.692 1560.62L336.4 1559.9L335.834 1560.79L336.229 1566.04L332.977 1569.96L332.362 1571.31L339.285 1572.98L340.025 1574.95L341.602 1577.96L343.056 1577.64L345.42 1573.16L349.313 1572.15L351.752 1571.46L351.012 1569.48L348.03 1566.33L348.251 1559.73Z" fill="#C2BDFF"/>
<path d="M319.708 1628.66L315.495 1628.21L312.49 1629.79L310.79 1632.45L310.815 1636.71L314.216 1640.38L318.429 1640.83L321.435 1639.25L323.134 1636.59L323.429 1633.78L321.901 1630.31L319.708 1628.66Z" fill="#C2BDFF"/>
<path d="M31.3449 1467.75L28.068 1467.4L25.5798 1468.56L23.4613 1470.7L22.6981 1473.46L23.7581 1476.88L26.3209 1479.52L30.534 1479.96L33.0222 1478.8L35.1899 1476.19L35.5834 1472.45L34.006 1469.44L31.3449 1467.75Z" fill="#C2BDFF"/>
<path d="M163.148 1420.55L159.305 1421.1L156.669 1423.66L155.807 1427.35L156.916 1430.31L159.06 1432.43L159.947 1433L163.224 1433.34L166.23 1431.76L167.831 1430.04L168.693 1426.34L167.164 1422.87L165.439 1421.27L163.148 1420.55Z" fill="#C2BDFF"/>
<path d="M489.274 1681.5L484.125 1680.95L481.07 1683L480.503 1683.89L479.962 1689.04L482.008 1692.09L484.25 1693.27L488.512 1693.25L491.099 1691.15L492.281 1688.91L492.207 1685.12L490.161 1682.06L489.274 1681.5Z" fill="#C2BDFF"/>
<path d="M79.7185 1246.17L78.733 1246.53L76.7892 1260.53L68.831 1259.69L68.7327 1260.63L76.1243 1262.35L75.6831 1275.55L76.5702 1276.12L77.1859 1274.76L79.2536 1264.1L79.8693 1262.74L88.3939 1262.69L88.9604 1261.81L79.5979 1260.82L80.039 1247.62L79.7185 1246.17Z" fill="#C2BDFF"/>
<path d="M277.572 1597.26L276.636 1597.16L274.594 1612.09L267.991 1611.86L267.892 1612.8L273.88 1614.38L274.053 1617.23L273.438 1627.58L274.178 1629.55L277.058 1615.66L277.206 1614.25L280.951 1614.65L284.277 1614.52L283.439 1613.49L277.871 1612.43L277.721 1604.84L277.572 1597.26Z" fill="#C2BDFF"/>
<path d="M80.9787 1405.29L73.3903 1405.44L73.5141 1408.77L71.8638 1410.96L71.7162 1412.36L74.8947 1413.65L77.0385 1415.76L78.4921 1415.44L80.1424 1413.25L82.6306 1412.09L81.8912 1410.12L81.1025 1408.62L80.9787 1405.29Z" fill="#C2BDFF"/>
<path d="M108.714 1366.57L103.515 1366.49L101.594 1366.77L101.249 1370.04L100.018 1372.75L103.985 1375.53L105.242 1377.09L108.395 1374.1L110.834 1373.41L110.563 1371.49L109.355 1369.47L108.714 1366.57Z" fill="#C2BDFF"/>
<path d="M112.713 1409.58L107.514 1409.5L105.642 1409.31L104.731 1413.47L103.647 1414.77L103.5 1416.18L107.097 1417.98L109.241 1420.09L111.408 1417.48L114.365 1416.37L114.093 1414.45L112.886 1412.43L112.713 1409.58Z" fill="#C2BDFF"/>
<path d="M79.9487 1293.51L72.3603 1293.66L72.3857 1297.92L70.9322 1298.24L70.3164 1299.6L74.7517 1302.43L76.4767 1304.03L78.6443 1301.42L82.0688 1300.36L80.4914 1297.35L80.3676 1294.03L79.9487 1293.51Z" fill="#C2BDFF"/>
<path d="M141.946 1482.68L136.279 1482.56L134.407 1482.36L134.013 1486.11L132.314 1488.77L136.33 1491.08L138.055 1492.68L138.991 1492.78L140.174 1490.54L143.598 1489.48L143.327 1487.56L141.972 1486.94L141.946 1482.68Z" fill="#C2BDFF"/>
</g>
<defs>
<filter id="filter0_dddddd_399_995" x="-4954.98" y="-3629.33" width="10733.5" height="10366.9" filterUnits="userSpaceOnUse" color-interpolation-filters="sRGB">
<feFlood flood-opacity="0" result="BackgroundImageFix"/>
<feColorMatrix in="SourceAlpha" type="matrix" values="0 0 0 0 0 0 0 0 0 0 0 0 0 0 0 0 0 0 127 0" result="hardAlpha"/>
<feOffset/>
<feGaussianBlur stdDeviation="57.84"/>
<feColorMatrix type="matrix" values="0 0 0 0 1 0 0 0 0 1 0 0 0 0 1 0 0 0 1 0"/>
<feBlend mode="normal" in2="BackgroundImageFix" result="effect1_dropShadow_399_995"/>
<feColorMatrix in="SourceAlpha" type="matrix" values="0 0 0 0 0 0 0 0 0 0 0 0 0 0 0 0 0 0 127 0" result="hardAlpha"/>
<feOffset/>
<feGaussianBlur stdDeviation="115.68"/>
<feColorMatrix type="matrix" values="0 0 0 0 1 0 0 0 0 1 0 0 0 0 1 0 0 0 1 0"/>
<feBlend mode="normal" in2="effect1_dropShadow_399_995" result="effect2_dropShadow_399_995"/>
<feColorMatrix in="SourceAlpha" type="matrix" values="0 0 0 0 0 0 0 0 0 0 0 0 0 0 0 0 0 0 127 0" result="hardAlpha"/>
<feOffset/>
<feGaussianBlur stdDeviation="404.88"/>
<feColorMatrix type="matrix" values="0 0 0 0 1 0 0 0 0 1 0 0 0 0 1 0 0 0 1 0"/>
<feBlend mode="normal" in2="effect2_dropShadow_399_995" result="effect3_dropShadow_399_995"/>
<feColorMatrix in="SourceAlpha" type="matrix" values="0 0 0 0 0 0 0 0 0 0 0 0 0 0 0 0 0 0 127 0" result="hardAlpha"/>
<feOffset/>
<feGaussianBlur stdDeviation="809.76"/>
<feColorMatrix type="matrix" values="0 0 0 0 1 0 0 0 0 1 0 0 0 0 1 0 0 0 1 0"/>
<feBlend mode="normal" in2="effect3_dropShadow_399_995" result="effect4_dropShadow_399_995"/>
<feColorMatrix in="SourceAlpha" type="matrix" values="0 0 0 0 0 0 0 0 0 0 0 0 0 0 0 0 0 0 127 0" result="hardAlpha"/>
<feOffset/>
<feGaussianBlur stdDeviation="1388.16"/>
<feColorMatrix type="matrix" values="0 0 0 0 1 0 0 0 0 1 0 0 0 0 1 0 0 0 1 0"/>
<feBlend mode="normal" in2="effect4_dropShadow_399_995" result="effect5_dropShadow_399_995"/>
<feColorMatrix in="SourceAlpha" type="matrix" values="0 0 0 0 0 0 0 0 0 0 0 0 0 0 0 0 0 0 127 0" result="hardAlpha"/>
<feOffset/>
<feGaussianBlur stdDeviation="2429.28"/>
<feColorMatrix type="matrix" values="0 0 0 0 1 0 0 0 0 1 0 0 0 0 1 0 0 0 1 0"/>
<feBlend mode="normal" in2="effect5_dropShadow_399_995" result="effect6_dropShadow_399_995"/>
<feBlend mode="normal" in="SourceGraphic" in2="effect6_dropShadow_399_995" result="shape"/>
</filter>
<clipPath id="clip0_399_995">
<rect width="964" height="552" fill="white" transform="matrix(-0.994522 -0.104528 -0.104528 0.994522 920 1330)"/>
</clipPath>
</defs>
</svg>
